# xmcd
#
# Track frame offsets: 
#        150
#        16552
#        32837
#        48962
#        65180
#        90972
#        107247
#        131715
#        147505
#        163765
#
# Disc length: 2346 seconds
#
# Revision: 3
# Processed by: cddbd v1.5.2PL0 Copyright (c) Steve Scherf et al.
# Submitted via: ExactAudioCopy v0.99pb3
#
DISCID=8509280a
DTITLE=Lonnie Brooks - Turn On The Night
DYEAR=1900
DGENRE=Blues
TTITLE0=Eyeballin'
TTITLE1=Inflation
TTITLE2=Teenage Boogie Man
TTITLE3=Heavy Traffic
TTITLE4=I'll Take Care Of You
TTITLE5=T.V. Mama
TTITLE6=Mother Nature
TTITLE7=Don't Go To Sleep On Me
TTITLE8=Something You Got
TTITLE9=Zydeco
EXTD=
EXTT0=
EXTT1=
EXTT2=
EXTT3=
EXTT4=
EXTT5=
EXTT6=
EXTT7=
EXTT8=
EXTT9=
PLAYORDER=
